<svg height="44" viewBox="0 0 1284 522" xmlns="http://www.w3.org/2000/svg">
    <g
       id="g2"
       transform="translate(-8.534712,34.138847)">
      <path
         style="fill:#b4f139"
         d="m 392.20593,454.5705 c -1.06182,-2.76705 6.64186,-55.81969 12.68594,-87.36371 1.00114,-5.225 2.34529,-12.65 2.98698,-16.5 0.98553,-5.91291 2.65735,-14.75559 4.56085,-24.12341 0.88279,-4.34455 4.86021,-4.87659 36.4569,-4.87659 25.01965,0 30.33532,0.25968 35,1.70978 8.79708,2.73473 14.516,6.93106 17.70604,12.99203 2.59544,4.93124 2.7793,6.06005 2.65455,16.29819 -0.1468,12.04856 -2.6953,24.96724 -6.54774,33.1914 -1.23887,2.64473 -4.74107,7.34001 -7.78267,10.43394 -4.48958,4.56684 -6.84734,6.07217 -12.53018,8 -6.47171,2.19545 -8.56054,2.37549 -27.67753,2.38553 -11.37264,0.006 -20.91197,0.2453 -21.1985,0.53184 -0.96072,0.96072 -4.44488,22.35739 -5.17112,31.75653 -0.82791,10.71494 -3.05775,15.27181 -7.99045,16.32914 -1.62932,0.34925 -7.36402,0.68824 -12.74378,0.75331 -8.20483,0.0992 -9.88259,-0.14542 -10.40929,-1.51798 z m 73.04548,-72.36371 c 4.64114,-3.1367 8.08978,-10.13649 9.72846,-19.7461 2.85532,-16.74425 -3.45428,-21.62574 -25.57119,-19.78341 -7.46563,0.62188 -8.78708,1.01959 -10.11333,3.0437 -1.74691,2.66612 -6.95951,35.58212 -6.02179,38.02578 0.53598,1.39673 2.45994,1.56792 14.44855,1.28566 12.81643,-0.30176 14.1014,-0.50889 17.5293,-2.82563 z m 45.01612,71.52423 c -1.06318,-2.77058 2.60351,-30.10845 9.59317,-71.52423 1.62439,-9.625 4.12406,-25.825 5.55481,-36 2.91159,-20.70623 3.70545,-23.5503 6.81297,-24.40791 4.21583,-1.16348 39.28183,-2.78675 47.35881,-2.19233 16.68969,1.22828 29.98545,5.46882 35.49637,11.32119 7.37392,7.83082 7.94682,29.95448 1.13367,43.77905 -4.03752,8.19255 -8.93513,12.26025 -18.57073,15.42388 -2.0625,0.67718 -3.75,1.60852 -3.75,2.06965 0,0.46113 1.8647,2.31528 4.14377,4.12034 5.22794,4.1406 7.42152,9.10143 9.27356,20.97227 0.80779,5.17762 2.46151,15.13683 3.67494,22.13156 2.89879,16.70988 3.47148,16.03427 -13.23047,15.60809 -8.11755,-0.20713 -13.19917,-0.75847 -13.95269,-1.51381 -0.65183,-0.65341 -1.79686,-7.40341 -2.54449,-15 -2.18921,-22.2441 -3.83028,-30.23174 -6.82761,-33.23226 -2.43814,-2.44074 -3.22482,-2.59775 -14.60237,-2.9145 -7.58327,-0.21112 -12.50294,0.0615 -13.31817,0.73812 -2.19716,1.82349 -3.57163,8.24535 -6.14098,28.69224 -1.36152,10.83493 -2.47549,20.0485 -2.47549,20.4746 0,1.61298 -6.86255,2.80181 -16.76586,2.9044 -8.4353,0.0874 -10.37237,-0.17124 -10.86321,-1.45035 z m 71.53237,-76.60649 c 1.87181,-1.14113 4.22818,-3.05195 5.23638,-4.24626 4.43179,-5.2499 6.46506,-20.93538 3.29962,-25.45468 -3.22009,-4.59732 -7.08052,-5.72636 -19.12124,-5.59228 -14.87465,0.16562 -16.02062,0.50784 -17.19747,5.13554 -1.71818,6.75634 -4.48459,28.84899 -3.82701,30.56261 0.5594,1.45776 2.4477,1.67685 14.42504,1.6736 12.1828,-0.003 14.17615,-0.24441 17.18468,-2.07853 z m 98.28721,75.13607 c -15.98175,-4.56875 -29.17539,-13.5972 -39.76101,-27.20859 -6.15978,-7.92049 -10.19339,-19.26593 -11.52282,-32.41058 -0.89561,-8.85531 -0.76921,-11.25971 1.05144,-20 1.13818,-5.46405 3.59841,-13.15999 5.46716,-17.10209 6.00988,-12.6777 9.67981,-11.66494 11.47799,3.16745 0.6001,4.95 1.09237,14.20486 1.09392,20.56635 0.003,13.4701 1.21806,21.10216 4.56248,28.66448 3.14213,7.10493 7.53067,12.54444 13.83264,17.14531 15.13709,11.0511 32.17271,13.08163 48.08205,5.73106 8.77973,-4.05648 12.8182,-7.16878 18.30528,-14.1072 9.64813,-12.20005 11.68839,-20.56937 10.78056,-44.2228 -0.36357,-9.47254 -0.37353,-18.7553 -0.0221,-20.62837 0.80798,-4.3069 4.16837,-6.41149 7.44082,-4.66013 2.53146,1.35479 7.31722,11.24714 9.56712,19.77557 2.30231,8.72707 2.07669,28.7857 -0.43221,38.42598 -5.9107,22.71149 -24.57614,41.66235 -46.57389,47.28606 -8.26946,2.11408 -25.22781,1.89924 -33.34939,-0.4225 z m 6.30949,-28.93999 c -10.92497,-2.83184 -20.11388,-10.64226 -25.48351,-21.66056 l -3.38858,-6.95326 -0.62059,-22.5 -0.62059,-22.5 -3.21785,-6.26998 c -3.56195,-6.94047 -3.37176,-8.38227 1.69389,-12.84143 3.89882,-3.43203 15.71968,-9.06532 23.13723,-11.02615 7.53064,-1.99073 25.59012,-2.20683 33.4547,-0.40032 12.49691,2.87057 25.20943,10.01186 27.75052,15.58894 0.87289,1.9158 0.49911,3.03315 -2.33289,6.97371 l -3.37233,4.69239 -0.50622,24.64142 c -0.49049,23.87583 -0.58638,24.81231 -3.08616,30.14142 -6.41624,13.67836 -18.83142,22.22765 -32.90762,22.6607 -4.125,0.12691 -8.85,-0.11919 -10.5,-0.54688 z m 84.16325,-32.86382 c -0.25014,-0.4125 -0.77119,-4.58269 -1.1579,-9.2671 -0.82198,-9.9572 -1.38191,-8.99642 11.49465,-19.72405 16.86254,-14.04841 23.47476,-22.18731 35.95686,-44.25885 4.5101,-7.975 8.72734,-15.03785 9.37166,-15.69524 1.40086,-1.42927 15.41751,-2.8363 19.08506,-1.9158 2.01732,0.50631 2.58642,1.26992 2.58642,3.47037 0,6.99808 -17.8608,35.8473 -31.95191,51.60955 -11.58916,12.96357 -28.27456,28.0069 -36.67398,33.06477 -5.75999,3.46849 -7.85805,4.12274 -8.71086,2.71635 z M 382.16563,298.5138 c 0.97297,-0.25354 2.32297,-0.23686 3,0.0371 0.67704,0.27392 -0.11903,0.48137 -1.76903,0.46099 -1.65,-0.0204 -2.20393,-0.2445 -1.23097,-0.49805 z m 252.54347,-3.99012 c 0.72188,-0.28887 1.58438,-0.25334 1.91667,0.0789 0.33229,0.33229 -0.25833,0.56864 -1.3125,0.52522 -1.16494,-0.048 -1.4019,-0.28494 -0.60417,-0.60417 z m 51.9375,-0.0594 c 3.9875,-0.18981 10.5125,-0.18981 14.5,0 3.9875,0.18981 0.725,0.34511 -7.25,0.34511 -7.975,0 -11.2375,-0.1553 -7.25,-0.34511 z m -255.0223,-0.97923 c 1.77523,-0.22091 4.92523,-0.22454 7,-0.008 2.07477,0.21647 0.6223,0.39722 -3.2277,0.40165 -3.85,0.004 -5.54753,-0.17268 -3.7723,-0.39359 z m 184,0 c 1.77523,-0.22091 4.92523,-0.22454 7,-0.008 2.07477,0.21647 0.6223,0.39722 -3.2277,0.40165 -3.85,0.004 -5.54753,-0.17268 -3.7723,-0.39359 z m 46.53605,0.004 c 1.52006,-0.22985 3.77006,-0.22371 5,0.0136 1.22994,0.23737 -0.0137,0.42543 -2.76375,0.41792 -2.75,-0.008 -3.75631,-0.20171 -2.23625,-0.43157 z m 54.49791,0.0103 c 1.24391,-0.23919 3.04391,-0.23011 4,0.0202 0.95609,0.2503 -0.0617,0.446 -2.26166,0.4349 -2.2,-0.0111 -2.98225,-0.21588 -1.73834,-0.45508 z m 98.48834,-0.0212 c 2.0625,-0.21575 5.4375,-0.21575 7.5,0 2.0625,0.21574 0.375,0.39226 -3.75,0.39226 -4.125,0 -5.8125,-0.17652 -3.75,-0.39226 z m 22.5,-0.004 c 2.3375,-0.21053 6.1625,-0.21053 8.5,0 2.3375,0.21053 0.425,0.38279 -4.25,0.38279 -4.675,0 -6.5875,-0.17226 -4.25,-0.38279 z m 81.02644,-0.001 c 2.35203,-0.21125 5.95203,-0.20828 8,0.007 2.04796,0.21488 0.12356,0.38772 -4.27644,0.38408 -4.4,-0.004 -6.0756,-0.17944 -3.72356,-0.39068 z m 28.47356,0.005 c 2.0625,-0.21575 5.4375,-0.21575 7.5,0 2.0625,0.21574 0.375,0.39226 -3.75,0.39226 -4.125,0 -5.8125,-0.17652 -3.75,-0.39226 z M 544.16563,292.5138 c 0.97297,-0.25354 2.32297,-0.23686 3,0.0371 0.67704,0.27392 -0.11903,0.48137 -1.76903,0.46099 -1.65,-0.0204 -2.20393,-0.2445 -1.23097,-0.49805 z m -116.07408,-3.80701 c 0.0204,-1.65 0.2445,-2.20393 0.49804,-1.23096 0.25355,0.97296 0.23687,2.32296 -0.037,3 -0.27392,0.67703 -0.48137,-0.11904 -0.46099,-1.76904 z m 22.884,0.91667 c 0.048,-1.16494 0.28494,-1.4019 0.60417,-0.60417 0.28887,0.72188 0.25334,1.58438 -0.079,1.91667 -0.33229,0.33229 -0.56864,-0.25833 -0.52522,-1.3125 z m 160.15306,-1.41667 c 0,-1.925 0.20579,-2.7125 0.45732,-1.75 0.25153,0.9625 0.25153,2.5375 0,3.5 -0.25153,0.9625 -0.45732,0.175 -0.45732,-1.75 z m 365.1108,-4.5 c 0.004,-4.4 0.17944,-6.0756 0.39069,-3.72356 0.21124,2.35204 0.20827,5.95204 -0.007,8 -0.21488,2.04796 -0.38772,0.12356 -0.38409,-4.27644 z m -76.93782,2.25 -1.90499,-2.25 2.25,1.90499 c 2.11445,1.79022 2.70524,2.59501 1.90499,2.59501 -0.18976,0 -1.20226,-1.0125 -2.25,-2.25 z m -537.53254,-1.5 c -1.24387,-1.58605 -1.2085,-1.62142 0.37755,-0.37755 1.66575,1.30637 2.19548,2.12755 1.37245,2.12755 -0.20766,0 -0.99516,-0.7875 -1.75,-1.75 z m 277.28545,-3.25 c 0,-1.375 0.22697,-1.9375 0.50438,-1.25 0.27742,0.6875 0.27742,1.8125 0,2.5 -0.27741,0.6875 -0.50438,0.125 -0.50438,-1.25 z m -210,-1 c 0,-1.375 0.22697,-1.9375 0.50438,-1.25 0.27742,0.6875 0.27742,1.8125 0,2.5 -0.27741,0.6875 -0.50438,0.125 -0.50438,-1.25 z m 181.09429,-1.5 c 0.0111,-2.2 0.21588,-2.98225 0.45507,-1.73834 0.2392,1.24392 0.23012,3.04392 -0.0202,4 -0.25029,0.95609 -0.44599,-0.0617 -0.43489,-2.26166 z m -180.17324,-4.08333 c 0.048,-1.16494 0.28494,-1.4019 0.60417,-0.60417 0.28887,0.72188 0.25334,1.58438 -0.079,1.91667 -0.33229,0.33229 -0.56864,-0.25833 -0.52522,-1.3125 z m 208.116,-0.91667 c 0.0204,-1.65 0.2445,-2.20393 0.49804,-1.23096 0.25355,0.97296 0.23687,2.32296 -0.0371,3 -0.27392,0.67703 -0.48137,-0.11904 -0.46099,-1.76904 z m 147.17502,-8.5 c 0,-5.775 0.16527,-8.1375 0.36727,-5.25 0.20201,2.8875 0.20201,7.6125 0,10.5 -0.202,2.8875 -0.36727,0.525 -0.36727,-5.25 z m -88.10622,8.28242 c 1.52006,-0.22985 3.77006,-0.22371 5,0.0136 1.22994,0.23737 -0.0137,0.42543 -2.76375,0.41792 -2.75,-0.008 -3.75631,-0.20171 -2.23625,-0.43157 z m 153.98625,-1.97174 c 0.9625,-0.25153 2.5375,-0.25153 3.5,0 0.9625,0.25153 0.175,0.45732 -1.75,0.45732 -1.925,0 -2.7125,-0.20579 -1.75,-0.45732 z m 88.5625,0.006 c 0.72188,-0.28887 1.58438,-0.25334 1.91667,0.0789 0.33229,0.33229 -0.25833,0.56864 -1.3125,0.52522 -1.16494,-0.048 -1.4019,-0.28494 -0.60417,-0.60417 z m 23.45653,-0.01 c 0.97297,-0.25354 2.32297,-0.23686 3,0.0371 0.67704,0.27392 -0.11903,0.48137 -1.76903,0.46099 -1.65,-0.0204 -2.20393,-0.2445 -1.23097,-0.49805 z M 658.0545,268.20679 c 0,-1.375 0.22697,-1.9375 0.50438,-1.25 0.27742,0.6875 0.27742,1.8125 0,2.5 -0.27741,0.6875 -0.50438,0.125 -0.50438,-1.25 z m -49.07895,-1.58333 c 0.048,-1.16494 0.28494,-1.4019 0.60417,-0.60417 0.28887,0.72188 0.25334,1.58438 -0.0789,1.91667 -0.33229,0.33229 -0.56864,-0.25833 -0.52522,-1.3125 z m 28,-1 c 0.048,-1.16494 0.28494,-1.4019 0.60417,-0.60417 0.28887,0.72188 0.25334,1.58438 -0.0789,1.91667 -0.33229,0.33229 -0.56864,-0.25833 -0.52522,-1.3125 z m -182,-1 c 0.048,-1.16494 0.28494,-1.4019 0.60417,-0.60417 0.28887,0.72188 0.25334,1.58438 -0.079,1.91667 -0.33229,0.33229 -0.56864,-0.25833 -0.52522,-1.3125 z m 439,-1 c 0.048,-1.16494 0.28494,-1.4019 0.60417,-0.60417 0.28887,0.72188 0.25334,1.58438 -0.0789,1.91667 -0.33229,0.33229 -0.56864,-0.25833 -0.52522,-1.3125 z m -234.84694,-3.41667 c 0,-1.925 0.20579,-2.7125 0.45732,-1.75 0.25153,0.9625 0.25153,2.5375 0,3.5 -0.25153,0.9625 -0.45732,0.175 -0.45732,-1.75 z m -203.03706,-1.5 c 0.0204,-1.65 0.2445,-2.20393 0.49804,-1.23096 0.25355,0.97296 0.23687,2.32296 -0.037,3 -0.27392,0.67703 -0.48137,-0.11904 -0.46099,-1.76904 z m 121.55505,0.75602 c 4.5375,-0.1853 11.9625,-0.1853 16.5,0 4.5375,0.18529 0.825,0.33689 -8.25,0.33689 -9.075,0 -12.7875,-0.1516 -8.25,-0.33689 z m 26,0.0817 c 0.6875,-0.27741 1.8125,-0.27741 2.5,0 0.6875,0.27742 0.125,0.50439 -1.25,0.50439 -1.375,0 -1.9375,-0.22697 -1.25,-0.50439 z m 83.44495,-1.83772 c 0.0204,-1.65 0.2445,-2.20393 0.49804,-1.23096 0.25355,0.97296 0.23687,2.32296 -0.0371,3 -0.27392,0.67703 -0.48137,-0.11904 -0.46099,-1.76904 z m -347.3225,-0.25 c -1.24387,-1.58605 -1.2085,-1.62142 0.37755,-0.37755 1.66575,1.30637 2.19548,2.12755 1.37245,2.12755 -0.20766,0 -0.99516,-0.7875 -1.75,-1.75 z m 583.2065,-3.83333 c 0.048,-1.16494 0.28494,-1.4019 0.60417,-0.60417 0.28887,0.72188 0.25334,1.58438 -0.0789,1.91667 -0.33229,0.33229 -0.56864,-0.25833 -0.52522,-1.3125 z m -587.2065,-1.16667 c -1.24387,-1.58605 -1.2085,-1.62142 0.37755,-0.37755 1.66575,1.30637 2.19548,2.12755 1.37245,2.12755 -0.20766,0 -0.99516,-0.7875 -1.75,-1.75 z m 121.2065,0.16667 c 0.048,-1.16494 0.28494,-1.4019 0.60417,-0.60417 0.28887,0.72188 0.25334,1.58438 -0.079,1.91667 -0.33229,0.33229 -0.56864,-0.25833 -0.52522,-1.3125 z m 203.07895,-1.41667 c 0,-1.375 0.22697,-1.9375 0.50438,-1.25 0.27742,0.6875 0.27742,1.8125 0,2.5 -0.27741,0.6875 -0.50438,0.125 -0.50438,-1.25 z m 28,-1 c 0,-1.375 0.22697,-1.9375 0.50438,-1.25 0.27742,0.6875 0.27742,1.8125 0,2.5 -0.27741,0.6875 -0.50438,0.125 -0.50438,-1.25 z m -298.28545,-5.75 c -1.24387,-1.58605 -1.2085,-1.62142 0.37755,-0.37755 0.9625,0.75484 1.75,1.54234 1.75,1.75 0,0.82303 -0.82118,0.2933 -2.12755,-1.37245 z m 71.87755,1.08772 c 0.6875,-0.27741 1.8125,-0.27741 2.5,0 0.6875,0.27742 0.125,0.50439 -1.25,0.50439 -1.375,0 -1.9375,-0.22697 -1.25,-0.50439 z m 38,0 c 0.6875,-0.27741 1.8125,-0.27741 2.5,0 0.6875,0.27742 0.125,0.50439 -1.25,0.50439 -1.375,0 -1.9375,-0.22697 -1.25,-0.50439 z m 161.4079,-1.33772 c 0,-1.375 0.22697,-1.9375 0.50438,-1.25 0.27742,0.6875 0.27742,1.8125 0,2.5 -0.27741,0.6875 -0.50438,0.125 -0.50438,-1.25 z m 74.92105,-0.58333 c 0.048,-1.16494 0.28494,-1.4019 0.60417,-0.60417 0.28887,0.72188 0.25334,1.58438 -0.0789,1.91667 -0.33229,0.33229 -0.56864,-0.25833 -0.52522,-1.3125 z m 188.07895,-0.41667 c 0,-1.375 0.22697,-1.9375 0.50438,-1.25 0.27742,0.6875 0.27742,1.8125 0,2.5 -0.27741,0.6875 -0.50438,0.125 -0.50438,-1.25 z m -27.96295,-1.5 c 0.0204,-1.65 0.2445,-2.20393 0.49804,-1.23096 0.25355,0.97296 0.23687,2.32296 -0.0371,3 -0.27392,0.67703 -0.48137,-0.11904 -0.46099,-1.76904 z m -52.44495,-5.20573 c 1.2375,-0.23835 3.2625,-0.23835 4.5,0 1.2375,0.23835 0.225,0.43337 -2.25,0.43337 -2.475,0 -3.4875,-0.19502 -2.25,-0.43337 z m 53.48201,-2.29427 c 0,-1.925 0.20579,-2.7125 0.45732,-1.75 0.25153,0.9625 0.25153,2.5375 0,3.5 -0.25153,0.9625 -0.45732,0.175 -0.45732,-1.75 z m -266.03706,-3.5 c 0.0204,-1.65 0.2445,-2.20393 0.49804,-1.23096 0.25355,0.97296 0.23687,2.32296 -0.0371,3 -0.27392,0.67703 -0.48137,-0.11904 -0.46099,-1.76904 z m -27,-3 c 0.0204,-1.65 0.2445,-2.20393 0.49804,-1.23096 0.25355,0.97296 0.23687,2.32296 -0.0371,3 -0.27392,0.67703 -0.48137,-0.11904 -0.46099,-1.76904 z m 265.13319,-4 c 0.004,-3.85 0.18519,-5.30246 0.40166,-3.22769 0.21648,2.07477 0.21285,5.22477 -0.008,7 -0.22091,1.77523 -0.39802,0.0777 -0.39359,-3.77231 z m -494.45569,1.75 c -1.24387,-1.58605 -1.2085,-1.62142 0.37755,-0.37755 1.66575,1.30637 2.19548,2.12755 1.37245,2.12755 -0.20766,0 -0.99516,-0.7875 -1.75,-1.75 z m 66.0128,0.46036 c 0.43673,-0.43431 5.02871,-0.65637 10.2044,-0.49348 l 9.41035,0.29617 -10.2044,0.49348 c -5.61242,0.27141 -9.84708,0.13813 -9.41035,-0.29617 z m 42.36475,-0.39968 c 0.9625,-0.25153 2.5375,-0.25153 3.5,0 0.9625,0.25153 0.175,0.45732 -1.75,0.45732 -1.925,0 -2.7125,-0.20579 -1.75,-0.45732 z m 10.75,-1.68823 c 0,-0.20766 0.7875,-0.99516 1.75,-1.75 1.58606,-1.24387 1.62143,-1.2085 0.37756,0.37755 -1.30637,1.66575 -2.12756,2.19548 -2.12756,1.37245 z m 109.25219,-6.12245 c 0.0111,-2.2 0.21588,-2.98225 0.45507,-1.73834 0.2392,1.24392 0.23012,3.04392 -0.0202,4 -0.25029,0.95609 -0.44599,-0.0617 -0.43489,-2.26166 z m -158.217,0.56575 c -3.64116,-6.80356 3.39872,-12.95226 9.74231,-8.50904 2.59823,1.81987 2.86262,5.08438 0.6658,8.22079 -2.08332,2.97436 -8.86996,3.16231 -10.40811,0.28825 z m 18.54484,0.0227 c -4.20379,-4.64514 1.02172,-11.66265 7.1019,-9.53736 2.2121,0.77322 2.88695,1.70012 3.13841,4.31052 0.59527,6.17965 -6.22677,9.66174 -10.24031,5.22684 z m 17.16997,-0.30507 c -2.33869,-2.92691 -2.20537,-5.28121 0.43856,-7.74441 5.82676,-5.42845 13.57334,0.93187 9.77626,8.02679 -1.5043,2.81081 -7.88418,2.63444 -10.21482,-0.28238 z m -99.29747,-2.05246 c -6.54229,-4.00893 -8.67161,-6.95551 -9.23065,-12.77356 -0.9198,-9.57253 5.52656,-21.03905 13.65678,-24.29212 15.20902,-6.08544 31.20336,0.59413 33.7349,14.08839 0.96692,5.15416 -1.93956,13.36675 -6.40082,18.08624 -5.74317,6.07558 -10.79784,8.17628 -19.4229,8.07207 -6.30762,-0.0762 -7.96992,-0.50481 -12.33731,-3.18102 z m -14.58008,-0.48091 c -1.24387,-1.58605 -1.2085,-1.62142 0.37755,-0.37755 0.9625,0.75484 1.75,1.54234 1.75,1.75 0,0.82303 -0.82118,0.2933 -2.12755,-1.37245 z m 298.28545,-0.25 c 0,-1.375 0.22697,-1.9375 0.50438,-1.25 0.27742,0.6875 0.27742,1.8125 0,2.5 -0.27741,0.6875 -0.50438,0.125 -0.50438,-1.25 z m 158.6546,1.31689 c 0.72188,-0.28887 1.58438,-0.25334 1.91667,0.0789 0.33229,0.33229 -0.25833,0.56864 -1.3125,0.52522 -1.16494,-0.048 -1.4019,-0.28494 -0.60417,-0.60417 z m -3.49242,-6.31689 c 0,-3.575 0.18149,-5.0375 0.40332,-3.25 0.22182,1.7875 0.22182,4.7125 0,6.5 -0.22183,1.7875 -0.40332,0.325 -0.40332,-3.25 z m -127.16218,3 c 0,-1.375 0.22697,-1.9375 0.50438,-1.25 0.27742,0.6875 0.27742,1.8125 0,2.5 -0.27741,0.6875 -0.50438,0.125 -0.50438,-1.25 z m 98.12812,-2.5 c 0.007,-2.75 0.20171,-3.75631 0.43156,-2.23625 0.22986,1.52007 0.22372,3.77007 -0.0136,5 -0.23736,1.22994 -0.42542,-0.0137 -0.41791,-2.76375 z m -259.20707,-2.08333 c 0.048,-1.16494 0.28494,-1.4019 0.60417,-0.60417 0.28887,0.72188 0.25334,1.58438 -0.0789,1.91667 -0.33229,0.33229 -0.56864,-0.25833 -0.52522,-1.3125 z M 666.0545,208.2068 c 0,-1.375 0.22697,-1.9375 0.50438,-1.25 0.27742,0.6875 0.27742,1.8125 0,2.5 -0.27741,0.6875 -0.50438,0.125 -0.50438,-1.25 z m -355,-1 c 0,-1.375 0.22697,-1.9375 0.50438,-1.25 0.27742,0.6875 0.27742,1.8125 0,2.5 -0.27741,0.6875 -0.50438,0.125 -0.50438,-1.25 z m 383.03705,-0.5 c 0.0204,-1.65 0.2445,-2.20393 0.49804,-1.23096 0.25355,0.97296 0.23687,2.32296 -0.0371,3 -0.27392,0.67703 -0.48137,-0.11904 -0.46099,-1.76904 z m -334.3225,-0.25 c -1.24387,-1.58605 -1.2085,-1.62142 0.37755,-0.37755 1.66575,1.30637 2.19548,2.12755 1.37245,2.12755 -0.20766,0 -0.99516,-0.7875 -1.75,-1.75 z m 145.42722,-6.25 c 0,-3.025 0.18746,-4.2625 0.41659,-2.75 0.22912,1.5125 0.22912,3.9875 0,5.5 -0.22913,1.5125 -0.41659,0.275 -0.41659,-2.75 z m 286.89528,1.5 c 0.0204,-1.65 0.2445,-2.20393 0.49804,-1.23096 0.25355,0.97296 0.23687,2.32296 -0.0371,3 -0.27392,0.67703 -0.48137,-0.11904 -0.46099,-1.76904 z m -436.3225,-0.25 c -1.24387,-1.58605 -1.2085,-1.62142 0.37755,-0.37755 0.9625,0.75484 1.75,1.54234 1.75,1.75 0,0.82303 -0.82118,0.2933 -2.12755,-1.37245 z m 90.35006,0.1933 c -2.74405,-1.922 -2.94812,-6.47665 -0.39377,-8.78831 2.5998,-2.35278 8.81915,-2.18142 10.13608,0.27927 1.58656,2.96451 1.2401,5.86083 -0.96482,8.06574 -2.3975,2.39751 -5.74603,2.56662 -8.77749,0.4433 z m 18.77749,0.26243 c -2.02837,-1.02619 -2.5,-2.00659 -2.5,-5.19691 0,-3.24999 0.47706,-4.19899 2.75,-5.47047 2.47058,-1.38204 3.02942,-1.38277 5.5,-0.007 3.41801,1.90314 4.28864,7.16365 1.66535,10.06235 -2.00532,2.21585 -3.93124,2.37485 -7.41535,0.61218 z m 68.32814,-5.20573 c 0.004,-3.85 0.18519,-5.30246 0.40166,-3.22769 0.21648,2.07477 0.21285,5.22477 -0.008,7 -0.22091,1.77523 -0.39802,0.0777 -0.39359,-3.77231 z m 133.82976,4.5 c 0,-1.375 0.22697,-1.9375 0.50438,-1.25 0.27742,0.6875 0.27742,1.8125 0,2.5 -0.27741,0.6875 -0.50438,0.125 -0.50438,-1.25 z m -185.91306,-0.25 c -2.43925,-3.04888 -2.39183,-5.69391 0.1476,-8.23335 2.97645,-2.97644 5.55712,-3.18783 8.62178,-0.70622 2.47833,2.00684 2.96706,6.30228 0.98834,8.6865 -1.51549,1.82604 -8.35731,2.0035 -9.75772,0.25307 z m 448.95011,-1.25 c 0.0204,-1.65 0.2445,-2.20393 0.49804,-1.23096 0.25355,0.97296 0.23687,2.32296 -0.0371,3 -0.27392,0.67703 -0.48137,-0.11904 -0.46099,-1.76904 z m -235.03705,-1.5 c 0,-1.375 0.22697,-1.9375 0.50438,-1.25 0.27742,0.6875 0.27742,1.8125 0,2.5 -0.27741,0.6875 -0.50438,0.125 -0.50438,-1.25 z m -26.96295,-3.5 c 0.0204,-1.65 0.2445,-2.20393 0.49804,-1.23096 0.25355,0.97296 0.23687,2.32296 -0.0371,3 -0.27392,0.67703 -0.48137,-0.11904 -0.46099,-1.76904 z m 262.884,-2.08333 c 0.048,-1.16494 0.28494,-1.4019 0.60417,-0.60417 0.28887,0.72188 0.25334,1.58438 -0.0789,1.91667 -0.33229,0.33229 -0.56864,-0.25833 -0.52522,-1.3125 z m -27.884,-2.91667 c 0.0204,-1.65 0.2445,-2.20393 0.49804,-1.23096 0.25355,0.97296 0.23687,2.32296 -0.0371,3 -0.27392,0.67703 -0.48137,-0.11904 -0.46099,-1.76904 z m -278.116,-0.0833 c 0.048,-1.16494 0.28494,-1.4019 0.60417,-0.60417 0.28887,0.72188 0.25334,1.58438 -0.0789,1.91667 -0.33229,0.33229 -0.56864,-0.25833 -0.52522,-1.3125 z M 331.6466,188.5011 c 1.2375,-0.23835 3.2625,-0.23835 4.5,0 1.2375,0.23835 0.225,0.43337 -2.25,0.43337 -2.475,0 -3.4875,-0.19502 -2.25,-0.43337 z m 532.01791,-2.019 c 1.79735,-0.22256 4.49735,-0.21797 6,0.0102 1.50265,0.22817 0.0321,0.41027 -3.26791,0.40466 -3.3,-0.006 -4.52944,-0.1923 -2.73209,-0.41487 z m 68.31104,-0.8586 c 0.048,-1.16494 0.28494,-1.4019 0.60417,-0.60417 0.28887,0.72188 0.25334,1.58438 -0.0789,1.91667 -0.33229,0.33229 -0.56864,-0.25833 -0.52522,-1.3125 z m -221.80992,-1.1097 c 0.97297,-0.25354 2.32297,-0.23686 3,0.0371 0.67704,0.27392 -0.11903,0.48137 -1.76903,0.46099 -1.65,-0.0204 -2.20393,-0.2445 -1.23097,-0.49805 z m 193.92592,-1.80701 c 0.0204,-1.65 0.2445,-2.20393 0.49804,-1.23096 0.25355,0.97296 0.23687,2.32296 -0.0371,3 -0.27392,0.67703 -0.48137,-0.11904 -0.46099,-1.76904 z m -280.116,-2.08333 c 0.048,-1.16494 0.28494,-1.4019 0.60417,-0.60417 0.28887,0.72188 0.25334,1.58438 -0.0789,1.91667 -0.33229,0.33229 -0.56864,-0.25833 -0.52522,-1.3125 z m 309,-3 c 0.048,-1.16494 0.28494,-1.4019 0.60417,-0.60417 0.28887,0.72188 0.25334,1.58438 -0.0789,1.91667 -0.33229,0.33229 -0.56864,-0.25833 -0.52522,-1.3125 z m -405.2065,-2.16667 c -1.24387,-1.58605 -1.2085,-1.62142 0.37755,-0.37755 0.9625,0.75484 1.75,1.54234 1.75,1.75 0,0.82303 -0.82118,0.2933 -2.12755,-1.37245 z m 230.53254,-0.5 -1.90499,-2.25 2.25,1.90499 c 1.2375,1.04775 2.25,2.06025 2.25,2.25 0,0.80026 -0.80479,0.20946 -2.59501,-1.90499 z m 46.59501,-4.12755 c 0,-0.20766 0.7875,-0.99516 1.75,-1.75 1.58606,-1.24387 1.62143,-1.2085 0.37756,0.37755 -1.30637,1.66575 -2.12756,2.19548 -2.12756,1.37245 z m -186.12755,-2.37245 c -1.24387,-1.58605 -1.2085,-1.62142 0.37755,-0.37755 0.9625,0.75484 1.75,1.54234 1.75,1.75 0,0.82303 -0.82118,0.2933 -2.12755,-1.37245 z m -100.87245,-0.25 c -0.90129,-0.58245 -1.02463,-0.97548 -0.30901,-0.98468 0.65504,-0.008 1.46909,0.43468 1.80901,0.98468 0.76731,1.24153 0.42113,1.24153 -1.5,0 z m 416.07895,-1.58333 c 0.048,-1.16494 0.28494,-1.4019 0.60417,-0.60417 0.28887,0.72188 0.25334,1.58438 -0.0789,1.91667 -0.33229,0.33229 -0.56864,-0.25833 -0.52522,-1.3125 z m -474.32895,-3.1224 c 1.2375,-0.23835 3.2625,-0.23835 4.5,0 1.2375,0.23835 0.225,0.43337 -2.25,0.43337 -2.475,0 -3.4875,-0.19502 -2.25,-0.43337 z m 32,0 c 1.2375,-0.23835 3.2625,-0.23835 4.5,0 1.2375,0.23835 0.225,0.43337 -2.25,0.43337 -2.475,0 -3.4875,-0.19502 -2.25,-0.43337 z m 198.5,-0.0105 c 1.5125,-0.22912 3.9875,-0.22912 5.5,0 1.5125,0.22913 0.275,0.41659 -2.75,0.41659 -3.025,0 -4.2625,-0.18746 -2.75,-0.41659 z m 24.5,0.054 c 0.6875,-0.27741 1.8125,-0.27741 2.5,0 0.6875,0.27742 0.125,0.50439 -1.25,0.50439 -1.375,0 -1.9375,-0.22697 -1.25,-0.50439 z m 112.07646,-5.86963 c -1.73034,-0.93964 -4.79005,-5.29662 -8.67286,-12.35 -8.12771,-14.76455 -8.2389,-14.95232 -11.6536,-19.67927 -18.76905,-25.981909 -47.9183,-50.371836 -75.5,-63.172798 -15.61021,-7.244865 -20.67154,-8.980477 -40.28576,-13.814633 -18.21814,-4.490073 -32.97876,-6.433194 -48.94568,-6.443314 -18.92908,-0.012 -32.45464,2.573738 -57.65924,11.022955 -21.6853,7.269462 -27.27451,9.654684 -35.02591,14.947482 -3.07087,2.09685 -9.69203,6.524818 -14.71368,9.839929 -8.75066,5.776867 -16.13793,11.886357 -20.72399,17.139351 -1.18015,1.351782 -4.20162,4.726782 -6.71437,7.499998 -5.63432,6.21838 -12.61457,16.20568 -19.59905,28.04221 -2.92088,4.95 -5.31556,8.70572 -5.32151,8.34604 -0.011,-0.6631 7.2533,-15.67531 9.36135,-19.34604 1.06356,-1.85195 4.58849,-6.79221 9.93537,-13.92462 12.73068,-16.981946 33.74765,-37.515624 48.69514,-47.575375 1.22584,-0.825 3.18922,-2.219422 4.36307,-3.098715 2.13627,-1.60022 18.16735,-10.291975 26.63426,-14.440608 7.67198,-3.759129 18.41305,-7.272455 30.19454,-9.876412 26.98887,-5.96511 28.04839,-6.086752 52.30546,-6.005112 20.75362,0.06985 24.4162,0.347138 37.5,2.839073 24.18993,4.607201 43.75027,12.099019 65.07509,24.924444 7.56897,4.552218 17.19486,11.161523 20.5891,14.13683 17.06053,14.954847 36.57286,35.413145 41.50817,43.520495 5.63019,9.24888 15.57757,26.92678 17.16239,30.5 0.97575,2.2 2.36346,5.125 3.08378,6.5 1.88562,3.59937 2.75635,7.87364 2.05448,10.08505 -0.54752,1.7251 -1.61734,1.91099 -10.7904,1.87492 -6.94032,-0.0273 -11.0339,-0.50233 -12.85615,-1.49188 z m -352.82646,-2.5271 c 0,-0.58246 0.45,-0.7809 1,-0.44099 0.55,0.33992 1,0.81648 1,1.05902 0,0.24254 -0.45,0.44098 -1,0.44098 -0.55,0 -1,-0.47655 -1,-1.05901 z m 5.03181,-10.49986 c -0.0175,-0.58237 0.62888,-1.93237 1.43639,-3 0.80751,-1.06762 1.48251,-1.46463 1.5,-0.88225 0.0175,0.58237 -0.62889,1.93237 -1.43639,3 -0.80751,1.06762 -1.48251,1.46463 -1.5,0.88225 z"
         id="path3" />
      <path
         style="fill:#ffffff"
         d="m 373.75184,295.36851 c -2.55462,-1.6413 -7.36066,-6.28663 -10.68009,-10.32295 -48.1665,-58.5689 -53.03995,-65.83887 -51.56893,-76.92792 1.47826,-11.14369 10.72985,-18.91085 22.52503,-18.91085 12.75634,0 10.41855,-2.36255 60.76045,61.40385 11.43207,14.48061 13.49944,18.13015 13.55704,23.93224 0.0376,3.7927 -0.784,6.92685 -3.09429,11.80299 -3.01141,6.35594 -3.39521,6.73563 -9,8.90342 -3.21995,1.24539 -8.55445,2.45314 -11.85445,2.68388 -5.33866,0.3733 -6.51196,0.0906 -10.64476,-2.56466 z m 245.39476,-1.90422 c -6.2621,-0.29809 -7.25,-0.59711 -7.25,-2.1945 0,-6.99554 -3.21541,-30.58145 -4.2595,-31.24454 -1.69753,-1.07809 -40.90156,-1.00253 -42.61389,0.0821 -0.75537,0.47848 -4.36664,7.78409 -8.02505,16.23468 l -6.65165,15.36472 -4.47496,0.67588 c -6.30221,0.95186 -23.75958,0.98161 -24.34061,0.0415 -0.59454,-0.96197 6.77978,-18.80773 15.79237,-38.21736 3.70307,-7.975 7.42554,-16.075 8.27215,-18 0.8466,-1.925 4.56556,-9.575 8.26436,-17 3.69879,-7.425 10.22472,-21.23615 14.50207,-30.69146 4.27734,-9.4553 8.61954,-18.09584 9.64934,-19.2012 2.83256,-3.0404 8.21573,-4.09618 20.88537,-4.09618 21.31606,0 23.70742,2.06524 26.04,22.48884 1.13585,9.94528 4.09728,29.8195 7.07791,47.5 6.4326,38.15691 8.6137,54.65109 7.58221,57.3391 -0.66665,1.73726 -1.99478,1.7969 -20.45012,0.9184 z m -14.66303,-66.5075 c -0.71752,-10.52236 -4.37746,-39.87382 -5.05672,-40.55308 -0.20874,-0.20874 -1.35848,-0.0688 -2.55498,0.31093 -1.32609,0.42089 -2.94924,2.5063 -4.15733,5.34131 -2.30186,5.40175 -3.03224,7.05406 -9.3495,21.15084 -4.06908,9.08005 -9.46844,22.56458 -9.46844,23.6468 0,0.19426 7.03933,0.3532 15.64296,0.3532 h 15.64295 z m 58.91303,66.56568 c -3.3,-0.23402 -6.36774,-0.79103 -6.81721,-1.23779 -0.981,-0.97511 2.79851,-32.9417 9.40876,-79.57789 5.01796,-35.40247 6.65069,-44.6708 8.12985,-46.14996 1.90255,-1.90255 26.84402,-3.63216 40.7786,-2.82787 12.26442,0.7079 26.54412,2.88423 33.17052,5.05543 2.56879,0.84169 6.70602,3.32206 9.19385,5.51193 11.83664,10.41903 15.09571,30.74658 9.68549,60.41047 -3.89584,21.36062 -5.09274,25.86785 -9.02874,34 -6.35224,13.12431 -14.20783,19.54744 -28.25196,23.1002 -4.78451,1.21034 -12.66323,1.65164 -33.26916,1.86345 -14.85,0.15264 -29.7,0.0861 -33,-0.14797 z m 55.04077,-22.42657 c 11.412,-4.24768 16.15547,-13.72959 20.07218,-40.12305 2.95562,-19.91691 2.98568,-33.6773 0.0833,-38.10695 -4.03264,-6.15459 -10.03534,-7.83403 -28.02061,-7.83964 -7.05342,-0.002 -12.99064,0.16225 -13.19383,0.36543 -0.20318,0.20319 -1.27262,6.88221 -2.37653,14.84227 -1.10391,7.96006 -3.3889,24.42788 -5.07777,36.59516 -1.68886,12.16728 -3.17344,25.21728 -3.29906,29 l -0.22841,6.87767 4.5,0.64256 c 7.16461,1.02304 21.99903,-0.19075 27.54077,-2.25345 z m 96.45923,22.04356 c -16.21622,-0.84571 -23.28706,-4.08729 -27.11927,-12.43267 -2.63047,-5.72835 -2.42307,-19.22428 0.66416,-43.21984 1.39969,-10.87908 3.1795,-25.63016 3.95513,-32.78016 2.66842,-24.59828 8.372,-34.38707 22.33778,-38.33725 4.60102,-1.30139 11.00351,-1.59773 34.1622,-1.5812 16.5978,0.0118 29.75287,0.44449 31.5,1.03596 2.64513,0.89548 3.03769,1.53739 3.31862,5.42655 0.42,5.81454 -0.48796,10.32786 -2.60054,12.92696 -1.66173,2.04441 -2.58164,2.12054 -28.04919,2.32136 -24.97198,0.19691 -26.40592,0.30996 -27.78034,2.19025 -2.35548,3.22243 -4.48384,11.47301 -5.09928,19.76737 -0.52864,7.12449 -0.42227,7.75543 1.31784,7.81717 1.04109,0.0369 12.13039,0.009 24.64289,-0.0625 l 22.75,-0.12962 v 8.94002 c 0,7.1108 -0.33957,9.22082 -1.6596,10.31245 -1.32395,1.09487 -6.12737,1.30606 -23.75,1.04421 -12.76069,-0.18961 -23.16071,0.082 -24.62463,0.64321 -2.27689,0.87281 -2.65768,1.82531 -3.75,9.38014 -0.66867,4.62477 -1.21577,11.44579 -1.21577,15.15781 v 6.74913 l 3.75,1.67317 c 3.16218,1.4109 7.5121,1.67722 27.75,1.69898 l 24,0.0258 0.28635,9.76094 c 0.27504,9.37564 0.19609,9.79472 -2,10.61683 -2.99185,1.12002 -38.08885,1.8214 -52.78635,1.0549 z m 105.5,0.14062 c -11.30444,-0.71501 -15.8403,-2.41897 -20.46727,-7.68879 -5.12223,-5.83389 -6.29841,-12.14411 -5.04152,-27.0476 0.59544,-7.06029 1.27811,-13.5119 1.51706,-14.3369 0.23895,-0.825 0.88583,-6.33655 1.43752,-12.2479 0.5517,-5.91135 2.32351,-19.41135 3.93736,-30 1.61385,-10.58865 3.22788,-22.4021 3.58672,-26.2521 1.0635,-11.41011 -0.24511,-10.5 15.09752,-10.5 h 13.43261 l -0.005,4.25 c -0.003,2.3375 -0.90062,10.325 -1.99574,17.75 -1.09512,7.425 -2.22798,16.2 -2.51747,19.5 -0.28948,3.3 -0.94844,8.475 -1.46434,11.5 -2.40248,14.08697 -3.13235,19.16533 -4.02419,28 -1.62766,16.12389 -1.36421,20.71111 1.28936,22.44979 3.77498,2.47346 16.25547,3.72361 33.71698,3.37738 l 16.5,-0.32717 0.28414,10.17378 0.28415,10.17378 -5.28415,0.53741 c -9.12384,0.92793 -39.84687,1.34848 -50.28414,0.68832 z m -491.93647,-3.29107 c 2.42916,-17.78746 3.70458,-25.67696 5.46124,-33.78222 1.13241,-5.225 2.73862,-13.02004 3.56933,-17.32232 0.83072,-4.30228 1.92575,-8.91478 2.4334,-10.25 l 0.923,-2.42768 22.77475,-0.006 c 13.2371,-0.003 24.44988,-0.46017 26.77475,-1.09109 8.18001,-2.21988 14.14847,-10.97792 15.12089,-22.18821 0.65307,-7.52874 -1.12978,-13.25967 -5.03066,-16.17091 -2.62684,-1.96042 -3.87356,-2.03302 -30.41467,-1.7712 -15.22156,0.15016 -28.1816,-0.0748 -28.8001,-0.5 -0.8309,-0.57117 -0.81021,-2.92618 0.0793,-9.01894 0.66209,-4.53525 1.46999,-8.5121 1.79532,-8.83744 2.55756,-2.55756 33.70388,-4.0241 53.31981,-2.5106 27.82409,2.14683 36.47871,9.74564 36.39929,31.9588 -0.0829,23.17618 -5.2377,36.60713 -16.92941,44.10968 -7.38985,4.74205 -16.42486,6.20585 -37.03972,6.00093 -9.625,-0.0957 -18.0276,-0.12929 -18.67245,-0.0747 -1.82532,0.15452 -3.07515,5.23036 -5.81089,23.59925 -1.39253,9.35 -2.89752,18.35 -3.34442,20 l -0.81256,3 -11.1222,0.28222 -11.12219,0.28221 z m 46.4671,-135.28222 c 0,-0.55 0.43622,-1.675 0.96937,-2.5 0.53316,-0.825 0.96938,-1.05 0.96938,-0.5 0,0.55 -0.43622,1.675 -0.96938,2.5 -0.53315,0.825 -0.96937,1.05 -0.96937,0.5 z"
         id="path2" />
    </g>
  </svg>